<?xml version="1.0" standalone="no"?><!DOCTYPE svg PUBLIC "-//W3C//DTD SVG 1.1//EN" "http://www.w3.org/Graphics/SVG/1.1/DTD/svg11.dtd"><svg t="1614049981868" class="icon" viewBox="0 0 1024 1024" version="1.1" xmlns="http://www.w3.org/2000/svg" p-id="3411" xmlns:xlink="http://www.w3.org/1999/xlink" width="200" height="200"><defs><style type="text/css"></style></defs><path d="M384 85.333333v85.333334H213.333333a42.666667 42.666667 0 0 0-42.666666 42.666666v597.333334a42.666667 42.666667 0 0 0 42.666666 42.666666h597.333334a42.666667 42.666667 0 0 0 42.666666-42.666666V213.333333a42.666667 42.666667 0 0 0-42.666666-42.666666h-170.666667V85.333333h170.666667a128 128 0 0 1 128 128v597.333334a128 128 0 0 1-128 128H213.333333a128 128 0 0 1-128-128V213.333333a128 128 0 0 1 128-128h170.666667z m89.6 469.333334H384a42.666667 42.666667 0 0 1 0-85.333334h67.669333L375.168 392.832a42.666667 42.666667 0 0 1 60.330667-60.330667L512 409.002667l76.501333-76.501334a42.666667 42.666667 0 0 1 60.330667 60.330667L572.330667 469.333333H640a42.666667 42.666667 0 0 1 0 85.333334h-89.6v42.666666H640a42.666667 42.666667 0 0 1 0 85.333334h-89.6v42.666666a38.4 38.4 0 1 1-76.8 0v-42.666666H384a42.666667 42.666667 0 0 1 0-85.333334h89.6v-42.666666z" fill="#bfcbd9" p-id="3412"></path><path d="M384 128v42.666667h256V128H384z m0-85.333333h256a85.333333 85.333333 0 0 1 85.333333 85.333333v42.666667a85.333333 85.333333 0 0 1-85.333333 85.333333H384a85.333333 85.333333 0 0 1-85.333333-85.333333V128a85.333333 85.333333 0 0 1 85.333333-85.333333z" fill="#bfcbd9" p-id="3413"></path></svg>