<?xml version="1.0" standalone="no"?><!DOCTYPE svg PUBLIC "-//W3C//DTD SVG 1.1//EN" "http://www.w3.org/Graphics/SVG/1.1/DTD/svg11.dtd"><svg t="1614755284387" class="icon" viewBox="0 0 1024 1024" version="1.1" xmlns="http://www.w3.org/2000/svg" p-id="3950" xmlns:xlink="http://www.w3.org/1999/xlink" width="200" height="200"><defs><style type="text/css"></style></defs><path d="M341.504 455.168H284.672c-34.304 0-56.832 22.528-56.832 56.832s22.528 56.832 56.832 56.832h56.832c34.304 0 56.832-22.528 56.832-56.832s-23.04-56.832-56.832-56.832z m397.824 341.504h56.832c34.304 0 56.832-22.528 56.832-56.832s-22.528-56.832-56.832-56.832h-56.832c-34.304 0-56.832 22.528-56.832 56.832s23.04 56.832 56.832 56.832zM341.504 227.328H284.672c-34.304 0-56.832 22.528-56.832 56.832s22.528 56.832 56.832 56.832h56.832c34.304 0 56.832-22.528 56.832-56.832s-23.04-56.832-56.832-56.832z m0 455.168H284.672c-34.304 0-56.832 22.528-56.832 56.832s22.528 56.832 56.832 56.832h56.832c34.304 0 56.832-22.528 56.832-56.832s-23.04-56.832-56.832-56.832z" p-id="3951"></path><path d="M967.168 227.328h-341.504V56.832c0-34.304-22.528-56.832-56.832-56.832h-512C22.528 0 0 22.528 0 56.832v910.336c0 34.304 22.528 56.832 56.832 56.832h910.336c34.304 0 56.832-22.528 56.832-56.832V284.672c0-34.304-22.528-57.344-56.832-57.344zM113.664 113.664H512v796.672H113.664V113.664z m796.672 796.672h-284.672V341.504h284.672v568.832z" p-id="3952"></path><path d="M739.328 568.832h56.832c34.304 0 56.832-22.528 56.832-56.832s-22.528-56.832-56.832-56.832h-56.832c-34.304 0-56.832 22.528-56.832 56.832s23.04 56.832 56.832 56.832z" p-id="3953"></path></svg>