<?xml version="1.0" standalone="no"?><!DOCTYPE svg PUBLIC "-//W3C//DTD SVG 1.1//EN" "http://www.w3.org/Graphics/SVG/1.1/DTD/svg11.dtd"><svg t="1612492681260" class="icon" viewBox="0 0 1024 1024" version="1.1" xmlns="http://www.w3.org/2000/svg" p-id="11432" xmlns:xlink="http://www.w3.org/1999/xlink" width="200" height="200"><defs><style type="text/css"></style></defs><path d="M998.912 677.376h-101.888v-118.784h16.896c13.824 0 25.088-11.264 25.088-25.088s-11.264-25.088-25.088-25.088h-313.344V346.624h101.888c13.824 0 25.088-11.264 25.088-25.088V25.088c0-13.824-11.264-25.088-25.088-25.088H321.536c-13.824 0-25.088 11.264-25.088 25.088v296.448c0 13.824 11.264 25.088 25.088 25.088h101.888v161.28H110.08c-13.824 0-25.088 11.264-25.088 25.088s11.264 25.088 25.088 25.088h16.896v118.784H25.088c-13.824 0-25.088 11.264-25.088 25.088V998.4c0 13.824 11.264 25.088 25.088 25.088h380.928c13.824 0 25.088-11.264 25.088-25.088v-296.448c0-13.824-11.264-25.088-25.088-25.088H304.64V558.08h415.232v118.784h-101.888c-13.824 0-25.088 11.264-25.088 25.088V998.4c0 13.824 11.264 25.088 25.088 25.088h380.928c13.824 0 25.088-11.264 25.088-25.088v-296.448c0-13.312-11.264-24.576-25.088-24.576zM473.6 507.904V346.624h76.288v161.28H473.6zM50.688 973.312v-245.76h330.752v245.76H50.688z m126.976-295.936v-118.784h76.288v118.784H177.664z m465.408 295.936v-245.76h330.752v245.76h-330.752z m126.976-295.936v-118.784h76.288v118.784h-76.288zM677.376 50.688v245.76H346.624v-245.76h330.752z" p-id="11433" fill="#409eff"></path><path d="M977.408 558.592c13.824 0 25.088-11.264 25.088-25.088s-11.264-25.088-25.088-25.088-25.088 11.264-25.088 25.088 11.264 25.088 25.088 25.088zM46.592 558.592c13.824 0 25.088-11.264 25.088-25.088s-11.264-25.088-25.088-25.088-25.088 11.264-25.088 25.088c-0.512 13.824 10.752 25.088 25.088 25.088z" p-id="11434" fill="#409eff"></path></svg>