<?xml version="1.0" standalone="no"?><!DOCTYPE svg PUBLIC "-//W3C//DTD SVG 1.1//EN" "http://www.w3.org/Graphics/SVG/1.1/DTD/svg11.dtd"><svg t="1612421330679" class="icon" viewBox="0 0 1024 1024" version="1.1" xmlns="http://www.w3.org/2000/svg" p-id="40480" xmlns:xlink="http://www.w3.org/1999/xlink" width="200" height="200"><defs><style type="text/css"></style></defs><path d="M432.993504 435.770823c12.79872-12.79872 38.293771-12.79872 51.092491 0 12.79872 12.69633 12.79872 38.140186 0 50.836516-57.491851 57.235876-57.491851 152.611939 0 209.89901l210.820518 209.847816c57.543046 57.235876 153.379862 57.235876 210.922908 0 57.440656-57.235876 57.440656-152.611939 0-209.899011L720.452759 512.051195c-12.79872-12.69633-12.79872-38.140186 0-50.887711 12.79872-12.69633 38.344966-12.69633 51.09249 0l185.325468 184.455154c89.437456 89.027897 89.437456 228.943506 0 311.623238-89.488651 89.027897-230.018598 89.027897-313.107889 0l-210.820518-209.89901c-89.488651-89.027897-89.488651-228.943506 0-311.623238z m153.328668 152.560744c-12.79872 12.79872-38.39616 12.79872-51.143686 0-12.79872-12.69633-12.79872-38.140186 0-50.836517 57.543046-57.235876 57.543046-152.611939 0-209.89901L324.357968 117.748225c-57.491851-57.235876-153.328667-57.235876-210.871713 0-57.491851 57.235876-57.491851 152.611939 0 209.89901L298.811723 512.051195c12.79872 12.747525 12.79872 38.140186 0 50.887711-12.79872 12.69633-38.39616 12.69633-51.143686 0L62.34257 378.432557c-83.038096-82.679732-83.038096-222.59534 0-311.623238 83.089291-89.027897 230.069793-89.027897 313.107889 0l210.871713 209.89901c89.437456 89.027897 89.437456 228.943506 0 311.623238z" fill="#4BC4FF" p-id="40481"></path></svg>