<?xml version="1.0" standalone="no"?><!DOCTYPE svg PUBLIC "-//W3C//DTD SVG 1.1//EN" "http://www.w3.org/Graphics/SVG/1.1/DTD/svg11.dtd"><svg t="1612577759305" class="icon" viewBox="0 0 1560 1024" version="1.1" xmlns="http://www.w3.org/2000/svg" p-id="2445" xmlns:xlink="http://www.w3.org/1999/xlink" width="304.6875" height="200"><defs><style type="text/css"></style></defs><path d="M877.714286 0a97.52381 97.52381 0 0 1 97.523809 97.52381v97.523809h292.571429a292.571429 292.571429 0 0 1 292.571428 292.571429v341.333333a48.761905 48.761905 0 0 1-48.761904 48.761905h-172.714667a146.285714 146.285714 0 0 1-288.475429 0h-442.953142a146.285714 146.285714 0 0 1-288.475429 0H97.52381a97.52381 97.52381 0 0 1-97.52381-97.52381V97.52381a97.52381 97.52381 0 0 1 97.52381-97.52381h780.190476zM463.238095 780.190476A73.142857 73.142857 0 0 0 390.095238 853.333333l0.390095 7.801905a73.240381 73.240381 0 0 0 1.170286 7.314286l-0.877714-4.973714c0.390095 2.681905 0.877714 5.315048 1.560381 7.899428l-0.682667-2.925714c0.585143 2.730667 1.316571 5.36381 2.145524 7.996952l-1.462857-5.071238a73.142857 73.142857 0 0 0 143.36-7.899428l-0.877715 4.924952c0.487619-2.389333 0.877714-4.827429 1.170286-7.314286l-0.292571 2.389334a73.142857 73.142857 0 0 0-65.389715-82.895239l-7.070476-0.390095z m731.428572 0a73.142857 73.142857 0 0 0-73.142857 73.142857l0.390095 7.801905a73.240381 73.240381 0 0 0 1.170285 7.314286l-0.877714-4.973714c0.390095 2.681905 0.877714 5.315048 1.560381 7.899428l-0.682667-2.925714c0.585143 2.730667 1.316571 5.36381 2.145524 7.996952l-1.462857-5.071238a73.142857 73.142857 0 0 0 143.36-7.899428l-0.877714 4.924952c0.487619-2.389333 0.877714-4.827429 1.170286-7.314286l-0.292572 2.389334a73.142857 73.142857 0 0 0-65.389714-82.895239l-7.070476-0.390095zM828.952381 97.52381H146.285714a48.761905 48.761905 0 0 0-48.761904 48.761904v585.142857a48.761905 48.761905 0 0 0 48.761904 48.761905h190.220191a146.236952 146.236952 0 0 1 253.464381 0H828.952381a48.761905 48.761905 0 0 0 48.761905-48.761905V146.285714a48.761905 48.761905 0 0 0-48.761905-48.761904z m438.857143 195.047619h-292.571429v487.619047h92.696381a146.236952 146.236952 0 0 1 253.464381 0H1462.857143v-292.571428a195.047619 195.047619 0 0 0-195.047619-195.047619z m20.138666 146.285714a48.761905 48.761905 0 0 1 0 97.523809H1072.761905a48.761905 48.761905 0 0 1 0-97.523809z" p-id="2446"></path></svg>