<?xml version="1.0" standalone="no"?><!DOCTYPE svg PUBLIC "-//W3C//DTD SVG 1.1//EN" "http://www.w3.org/Graphics/SVG/1.1/DTD/svg11.dtd"><svg t="1612259949742" class="icon" viewBox="0 0 1024 1024" version="1.1" xmlns="http://www.w3.org/2000/svg" p-id="5338" xmlns:xlink="http://www.w3.org/1999/xlink" width="200" height="200"><defs><style type="text/css"></style></defs><path d="M737.28 573.44c22.4 19.328 32.896 19.648 56 0.32 23.808-20.096 34.56-21.12 60.992-5.504l20.224 11.712c32 19.008 33.536 22.784 26.048 59.776-5.248 26.944 11.136 50.048 40.128 52.864 19.584 1.728 30.976 11.392 31.616 30.72 0.96 28.352 0.64 56.96-1.28 84.992-1.024 13.824-10.752 22.08-25.152 23.488-35.52 3.456-55.424 31.808-42.688 64.256 3.2 7.936 1.6 24.192-3.2 28.352-10.944 8.512-26.752 19.52-47.36 33.024l-10.752 7.04a25.6 25.6 0 0 1-26.88 0.512 143.936 143.936 0 0 1-19.712-13.248c-26.432-23.168-35.584-23.552-61.632 0-19.584 17.92-33.28 19.328-55.68 6.528a465.472 465.472 0 0 1-21.952-13.12c-32.512-19.392-34.176-23.168-26.368-61.12 5.248-25.6-12.736-49.472-41.344-51.84-19.008-1.728-29.76-11.072-30.656-29.76-1.344-28.288-1.088-56.576 0.896-84.992 0.96-14.464 11.136-23.104 26.432-24.832 36.544-3.84 51.84-26.56 41.408-62.912-5.568-20.032 0.96-33.152 16.64-42.816 11.072-6.912 22.464-13.12 33.536-19.648 26.112-15.296 37.184-14.208 60.672 6.208zM960 64v421.568h-76.8V140.8H140.8v742.4h339.2V960H64V64h896z m-267.84 562.56c-4.352 3.136-9.344 5.312-13.44 7.744 6.784 51.456-10.432 86.336-49.728 96.512-17.472 4.608-17.152 16-17.152 29.568 0 13.824 0.896 24.96 18.112 29.376 11.84 3.008 23.744 11.648 32.512 21.248 19.2 20.608 21.824 47.104 15.744 74.56 3.456 2.24 6.72 4.032 9.28 6.208 11.392 9.28 21.184 11.392 34.624 0.576 16.576-13.248 36.416-22.144 57.92-14.08 12.8 4.864 24.128 13.504 36.352 19.968 3.52 1.856 8.768 3.072 11.968 1.6 8.704-4.096 16.896-9.6 24.384-14.272-8.704-46.848 10.496-86.592 47.168-95.872 16.896-4.352 19.456-14.208 19.456-29.568 0-15.424-2.048-26.88-19.456-29.632a44.352 44.352 0 0 1-19.84-9.6c-27.008-21.888-34.816-51.2-27.328-85.696-14.784-9.856-27.392-23.424-46.464-7.424-26.56 21.952-54.208 20.032-80.64-1.216-11.072-8.576-22.144-10.176-33.472 0z m79.168 67.2c39.424 1.28 69.76 27.84 69.76 71.36a67.648 67.648 0 0 1-71.232 69.376c-39.68-1.152-69.44-27.136-69.696-71.232 0-43.52 33.984-70.656 71.168-69.44z m-0.384 37.12a30.528 30.528 0 0 0-22.08 9.28 32 32 0 0 0-9.024 22.592c0 18.112 14.72 32.384 32.896 32.128a30.72 30.72 0 0 0 22.08-9.408 32.256 32.256 0 0 0 9.024-22.72 31.36 31.36 0 0 0-32.896-31.872zM646.4 435.2V512H211.2V435.2h435.2z m-128-172.8v76.8H211.2V262.4h307.2z" p-id="5339"></path></svg>