<?xml version="1.0" standalone="no"?><!DOCTYPE svg PUBLIC "-//W3C//DTD SVG 1.1//EN" "http://www.w3.org/Graphics/SVG/1.1/DTD/svg11.dtd"><svg t="1612260108114" class="icon" viewBox="0 0 1024 1024" version="1.1" xmlns="http://www.w3.org/2000/svg" p-id="6102" xmlns:xlink="http://www.w3.org/1999/xlink" width="200" height="200"><defs><style type="text/css"></style></defs><path d="M795.358 328L610 141.504V328h185.358zM546 141H224v740h576V392H578c-17.673 0-32-14.327-32-32V141z m286 804H192c-17.673 0-32-14.327-32-32V109c0-17.673 14.327-32 32-32h430.81a32 32 0 0 1 22.697 9.442l209.19 210.473A32 32 0 0 1 864 319.473V913c0 17.673-14.327 32-32 32zM479 581V473a8 8 0 0 1 8-8h48a8 8 0 0 1 8 8v108h108a8 8 0 0 1 8 8v48a8 8 0 0 1-8 8H543v108a8 8 0 0 1-8 8h-48a8 8 0 0 1-8-8V645H371a8 8 0 0 1-8-8v-48a8 8 0 0 1 8-8h108z" fill="#000000" p-id="6103"></path></svg>