<?xml version="1.0" standalone="no"?><!DOCTYPE svg PUBLIC "-//W3C//DTD SVG 1.1//EN" "http://www.w3.org/Graphics/SVG/1.1/DTD/svg11.dtd"><svg t="1613804075476" class="icon" viewBox="0 0 1024 1024" version="1.1" xmlns="http://www.w3.org/2000/svg" p-id="4069" xmlns:xlink="http://www.w3.org/1999/xlink" width="200" height="200"><defs><style type="text/css"></style></defs><path d="M503.117 1014.886c6.938 0 13.542-2.761 18.355-7.675l301.107-306.685c67.328-74.518 104.422-173.91 104.422-279.937 0-231.913-190.72-420.59-425.114-420.59s-425.088 188.676-425.088 420.59c0 97.618 34.534 192.729 98.611 269.274l309.274 317.272c4.813 4.939 11.469 7.725 18.381 7.751l0.051 0zM671.813 318.268l-112.066 0c-8.93 23.189-12.648 32.537-11.155 28.135 19.323 68.422 44.589 127.254 75.828 176.557 30.478-58.139 46.265-126.349 47.393-204.692zM488.339 453.996l-23.955-30.879c43.126-63.295 72.293-140.703 87.531-232.314l39.59 4.433c-5.212 30.547-11.52 58.471-18.957 83.861l181.219 0 0 39.171-44.589 0c-2.225 94.536-22.492 174.145-60.803 238.888 34.958 45.986 75.493 81.66 121.575 107.05l-22.858 33.08c-47.575-26.838-87.928-62.692-120.996-107.563-33.83 43.755-78.083 79.428-132.699 107.02l-24.016-31.994c56.505-26.506 101.124-62.33 133.857-107.593-30.478-47.072-55.774-102.617-75.859-166.636-11.886 22.827-24.9 43.966-39.042 63.476zM272.558 552.723c10.393-4.403 15.635-10.826 15.635-19.269l0-273.114 39.011 0 0 276.974c21.548-6.242 47.393-15.258 77.504-27.049l0-317.231 39.59 0 0 499.849-39.59 0 0-144.02c-39.407 14.354-79.363 26.868-119.868 37.543l-12.282-33.683z" p-id="4070"></path></svg>