<?xml version="1.0" standalone="no"?><!DOCTYPE svg PUBLIC "-//W3C//DTD SVG 1.1//EN" "http://www.w3.org/Graphics/SVG/1.1/DTD/svg11.dtd"><svg t="1612345742423" class="icon" viewBox="0 0 1024 1024" version="1.1" xmlns="http://www.w3.org/2000/svg" p-id="7874" xmlns:xlink="http://www.w3.org/1999/xlink" width="200" height="200"><defs><style type="text/css"></style></defs><path d="M920.79957 552.675398a15.426341 15.426341 0 0 0-14.295588-9.625218l-89.881076 1.431605V78.425164c0-8.513908-6.912433-15.426341-15.426341-15.426341H220.451878c-8.513908 0-15.426341 6.912433-15.426341 15.426341l1.826601 464.626039h-91.708701c-6.271844 0-11.941983 3.804652-14.295588 9.625218s-0.960885 12.487406 3.54064 16.857947l395.670551 384.539026c2.995217 2.919493 6.874571 4.369517 10.754948 4.369518s7.759731-1.450025 10.754948-4.369518L917.257907 569.534368a15.428388 15.428388 0 0 0 3.541663-16.85897z m-409.985582 368.830253L153.153122 573.902862h53.699016c16.009625 0 29.025057-13.20372 29.025057-29.420053V93.850481H785.770224v450.631304c0 16.217357 13.052271 29.420053 29.119201 29.420054h53.604872L510.813988 921.505651z" p-id="7875"></path><path d="M545.621748 335.788719l-33.338292 120.356159h-0.923022L478.041584 335.788719h-88.883353l57.861825 138.890281h-34.713616v48.104601h55.07434l2.787486 7.873318v21.321608h-57.861826v48.142463h57.861826v56.920384h83.3268V600.12099h57.861826v-48.142463h-57.861826v-21.321608l2.769067-7.873318h55.092759v-48.104601h-34.732036l57.860803-138.890281z" p-id="7876"></path></svg>