<?xml version="1.0" standalone="no"?><!DOCTYPE svg PUBLIC "-//W3C//DTD SVG 1.1//EN" "http://www.w3.org/Graphics/SVG/1.1/DTD/svg11.dtd"><svg t="1612256474136" class="icon" viewBox="0 0 1024 1024" version="1.1" xmlns="http://www.w3.org/2000/svg" p-id="3856" xmlns:xlink="http://www.w3.org/1999/xlink" width="200" height="200"><defs><style type="text/css"></style></defs><path d="M509.85152 0a408.82688 408.82688 0 0 1 293.67808 124.31872c161.9456 167.168 161.9456 432.40448 0 599.56736L509.85152 1024l-293.64736-300.11392c-161.98144-167.16288-161.98144-432.40448 0-599.56736A408.81152 408.81152 0 0 1 509.85152 0.00512z m28.78464 159.59552c-16.0512 97.41824-47.04768 175.4624-92.43648 233.03168l24.9088 30.44352A417.16736 417.16736 0 0 0 504.32192 377.68192c19.92704 50.92352 45.94176 97.9712 76.93824 142.24896-34.31936 45.3888-80.81408 82.47808-138.9312 111.2576l22.69184 35.97824c57.56416-30.99648 104.61696-69.18656 141.14816-115.12832 34.8672 43.17184 76.3904 83.02592 124.53888 119.00416l27.12064-32.1024a662.84544 662.84544 0 0 1-127.3088-121.22112c40.96-64.2048 63.104-142.25408 66.97984-233.02656h47.60064v-39.30112H560.23232c6.64064-24.35584 12.72832-50.92352 18.26304-79.1552l-39.85408-6.64064z m-103.50592 4.4288h-39.296v319.37536c-27.67872 10.51648-55.3472 19.92704-83.03104 27.67872V208.86016h-38.74304v303.32416c0 5.53472-4.4288 9.96352-12.18048 13.2864l12.1856 33.76128c42.0608-11.06944 83.0208-23.2448 121.76896-37.08416v143.36h39.296V164.02432z m224.17408 120.66816c-3.32288 76.38016-21.03296 142.80192-54.2464 199.26016-32.1024-45.38368-57.56416-95.20128-77.4912-149.44768 7.19872-15.49824 13.83936-32.1024 20.48-49.81248h111.2576z" p-id="3857"></path></svg>