<?xml version="1.0" standalone="no"?><!DOCTYPE svg PUBLIC "-//W3C//DTD SVG 1.1//EN" "http://www.w3.org/Graphics/SVG/1.1/DTD/svg11.dtd"><svg t="1612346667653" class="icon" viewBox="0 0 1024 1024" version="1.1" xmlns="http://www.w3.org/2000/svg" p-id="6111" xmlns:xlink="http://www.w3.org/1999/xlink" width="200" height="200"><defs><style type="text/css"></style></defs><path d="M384.2 894.3H160.3c-52.9 0-96-43.1-96-96V158.6c0-52.9 43.1-96 96-96h511.8c52.9 0 96 43.1 96 96v191.9c0 17.7-14.3 32-32 32s-32-14.3-32-32V158.6c0-17.6-14.4-32-32-32H160.3c-17.6 0-32 14.4-32 32v639.7c0 17.6 14.4 32 32 32h223.9c17.7 0 32 14.3 32 32s-14.3 32-32 32z" p-id="6112"></path><path d="M688.1 958.3c-72.7 0-140.9-28.3-192.2-79.7-51.4-51.3-79.7-119.5-79.7-192.2s28.3-140.9 79.7-192.2c51.3-51.4 119.5-79.7 192.2-79.7s140.9 28.3 192.2 79.7c51.3 51.4 79.7 119.7 79.7 192.2 0 72.7-28.3 140.9-79.7 192.2-51.4 51.3-119.6 79.7-192.2 79.7z m0-479.8c-114.6 0-207.9 93.3-207.9 207.9 0 114.7 93.3 207.9 207.9 207.9C802.8 894.3 896 801 896 686.4c0-114.7-93.3-207.9-207.9-207.9z" p-id="6113"></path><path d="M608.1 318.5H224.3c-17.7 0-32-14.3-32-32s14.3-32 32-32h383.8c17.7 0 32 14.3 32 32s-14.3 32-32 32z m-223.9 192H224.3c-17.7 0-32-14.3-32-32s14.3-32 32-32h159.9c17.7 0 32 14.3 32 32s-14.3 32-32 32z m-64 191.9h-96c-17.7 0-32-14.3-32-32s14.3-32 32-32h96c17.7 0 32 14.3 32 32s-14.3 32-32 32z" p-id="6114"></path><path d="M751 780.6L610.8 640.3c-11.2-11.2-11.2-29.6 0-40.9l7.4-7.4c11.2-11.2 29.6-11.2 40.9 0l140.4 140.4c11.2 11.2 11.2 29.6 0 40.9l-7.4 7.4c-11.4 11.1-29.8 11.1-41.1-0.1z" p-id="6115"></path><path d="M799.3 640.2L659 780.6c-11.2 11.2-29.6 11.2-40.9 0l-7.4-7.4c-11.2-11.2-11.2-29.6 0-40.9L751.1 592c11.2-11.2 29.6-11.2 40.9 0l7.4 7.4c11.2 11.2 11.2 29.6-0.1 40.8z" p-id="6116"></path></svg>