<?xml version="1.0" standalone="no"?><!DOCTYPE svg PUBLIC "-//W3C//DTD SVG 1.1//EN" "http://www.w3.org/Graphics/SVG/1.1/DTD/svg11.dtd"><svg t="1616117961053" class="icon" viewBox="0 0 1024 1024" version="1.1" xmlns="http://www.w3.org/2000/svg" p-id="2605" xmlns:xlink="http://www.w3.org/1999/xlink" width="200" height="200"><defs><style type="text/css"></style></defs><path d="M364.8 294.4c0-6.4 0-6.4 0 0z m89.6 0zM819.2 620.8z m57.6-70.4c6.4 6.4 6.4 6.4 0 0 6.4 6.4 6.4 6.4 0 0zM531.2 6.4C377.6 6.4 256 128 256 281.6c0 147.2 121.6 268.8 268.8 268.8 147.2 0 268.8-121.6 268.8-268.8C800 128 678.4 6.4 531.2 6.4z m0 454.4c-102.4 0-179.2-83.2-179.2-179.2 0-102.4 83.2-179.2 179.2-179.2 102.4 0 179.2 83.2 179.2 179.2 0 96-83.2 179.2-179.2 179.2z" fill="#bfcbd9" p-id="2606"></path><path d="M780.8 531.2c0-6.4 0-6.4 0 0-83.2-44.8-166.4-70.4-249.6-70.4-281.6 0-505.6 224-505.6 505.6v12.8c0 25.6 19.2 44.8 44.8 44.8 25.6 0 44.8-19.2 44.8-44.8v-6.4c0-230.4 185.6-416 416-416 70.4 0 140.8 19.2 204.8 51.2 19.2 12.8 51.2 6.4 64-19.2 12.8-19.2 0-44.8-19.2-57.6z" fill="#bfcbd9" p-id="2607"></path><path d="M979.2 742.4c0-25.6-25.6-44.8-57.6-44.8H569.6c-32 0-57.6 19.2-57.6 44.8 0 25.6 25.6 44.8 57.6 44.8h358.4c32 0 51.2-19.2 51.2-44.8zM979.2 915.2c0-25.6-25.6-44.8-57.6-44.8H569.6c-32 6.4-57.6 25.6-57.6 44.8 0 25.6 25.6 44.8 57.6 44.8h358.4c32 0 51.2-19.2 51.2-44.8z" fill="#bfcbd9" p-id="2608"></path></svg>