<?xml version="1.0" standalone="no"?><!DOCTYPE svg PUBLIC "-//W3C//DTD SVG 1.1//EN" "http://www.w3.org/Graphics/SVG/1.1/DTD/svg11.dtd"><svg t="1616640538388" class="icon" viewBox="0 0 1024 1024" version="1.1" xmlns="http://www.w3.org/2000/svg" p-id="5240" width="32" height="32" xmlns:xlink="http://www.w3.org/1999/xlink"><defs><style type="text/css"></style></defs><path d="M146.758 823.932L324.679 616.34a336.207 336.207 0 0 0 72.96 34.227L205.737 874.471h400.711v77.672H205.737a77.672 77.672 0 0 1-58.98-128.211L324.68 616.34z m692.707-156.587v103.563h103.563v77.672H839.465v103.563h-77.672V848.58H658.23v-77.672h103.563V667.345h77.672zM502.885 71.857c142.995 0 258.908 115.913 258.908 258.908S645.88 589.672 502.885 589.672 243.977 473.76 243.977 330.765 359.89 71.857 502.885 71.857z m0 77.672a181.235 181.235 0 1 0 0 362.471 181.235 181.235 0 0 0 0-362.47z" p-id="5241" fill="#bfcbd9"></path></svg>