<?xml version="1.0" standalone="no"?><!DOCTYPE svg PUBLIC "-//W3C//DTD SVG 1.1//EN" "http://www.w3.org/Graphics/SVG/1.1/DTD/svg11.dtd"><svg t="1612260761910" class="icon" viewBox="0 0 1024 1024" version="1.1" xmlns="http://www.w3.org/2000/svg" p-id="13194" xmlns:xlink="http://www.w3.org/1999/xlink" width="200" height="200"><defs><style type="text/css"></style></defs><path d="M277.8752 244.61952c12.05504-15.22304 25.34656-29.3696 39.87584-42.02368l-71.99232-72.02944c-11.30112-11.3408-29.64352-11.3408-40.98816 0-11.30496 11.3088-11.30496 29.64736 0 40.95616l73.10464 73.09696z m234.13376-115.79776h0.83968c9.50784 0 18.8992 0.5952 28.12928 1.5488V32.2816c0-15.99744-12.97152-28.96896-28.96896-28.96896-15.99872 0-28.93696 12.9728-28.93696 28.96896v98.07232c9.23776-0.92928 18.62272-1.53216 28.13824-1.53216h0.79872z m234.19776 115.76576l73.03424-73.06624c11.33952-11.3088 11.33952-29.64736 0-40.9472-11.26912-11.34208-29.64736-11.34208-40.98944 0l-72.03584 72.02176c14.57024 12.65408 27.86048 26.78528 39.99232 41.98272v0.00896zM206.7136 450.01984c0-13.99296 1.11744-27.68128 2.74816-41.2096h-102.9888c-15.95648 0-28.93312 12.9728-28.93312 28.97024s12.97792 28.97024 28.93312 28.97024h100.60416a382.12864 382.12864 0 0 1-0.36352-16.73088z m710.81856-41.2096h-102.94784c1.66272 13.536 2.73792 27.2256 2.73792 41.2096 0 5.69088-0.11264 11.22688-0.30976 16.73088h100.51968c15.99616 0 28.92928-12.9728 28.92928-28.96128 0-15.99872-12.93312-28.97152-28.92928-28.97152v-0.00768zM761.45408 646.27072c-11.78112 17.26848-24.23168 32.18304-36.21888 45.6768l53.01504 53.04704c11.33312 11.3088 29.72928 11.3088 40.98944 0 11.33952-11.33952 11.33952-29.63712 0-40.98688l-57.7856-57.73696z m-556.68864 57.73696c-11.30112 11.3408-11.30112 29.64736 0 40.98688 11.34592 11.30112 29.69216 11.30112 40.99328 0l53.04704-53.07904c-11.97312-13.45536-24.43264-28.416-36.21504-45.6448l-57.82144 57.74336-0.00384-0.0064z m572.35968-253.98784c0.04096-60.06912-19.96672-115.62752-53.6832-160.11392-29.56544-39.08096-69.71392-69.7216-116.23808-87.70944l0.23552-1.27232-19.85408-5.82912a270.33856 270.33856 0 0 0-47.60192-9.2544l-2.29888-0.26112h-0.08064l-0.08064-0.01664c-7.96032-0.75776-16.2432-1.33632-24.8704-1.33632h-1.27104c-8.64384 0-16.91904 0.57856-24.8768 1.33632l-0.12288 0.01664-2.3808 0.26112c-16.2176 1.67168-32.13824 4.77056-47.54048 9.2544l-19.22304 5.60896 0.19968 1.27232c-46.75712 17.96224-87.15008 48.68608-116.8832 87.92192-33.66656 44.49408-53.6832 100.0448-53.6832 160.11392 0 43.07584 7.44448 78.496 19.02208 107.80032 17.39136 43.9552 43.93216 73.64224 65.26592 96.16384 10.66624 11.22816 20.05888 20.81792 26.42176 29.0112 6.52672 8.23552 9.6704 14.60352 10.58432 19.65696 4.65536 24.59136 5.1328 55.63392 5.1328 63.50976v2.27456c0 35.56352 28.81536 64.3072 64.35328 64.34048h148.72704c35.58272-0.032 64.35712-28.81536 64.35712-64.34048v-2.1952c-0.04096-7.80288 0.48256-38.91456 5.12896-63.54816 0.63488-3.42528 2.15424-7.3216 5.13664-12.09984 5.088-8.31744 14.7264-18.6624 26.6624-31.12192 17.824-18.73664 40.50688-42.37312 58.54336-75.98336 18.06848-33.56288 31.0016-76.9216 30.9184-133.46816v0.00768z m-60.76032 91.27296c-14.21312 35.83488-35.54304 60.0832-56.11392 81.81248-10.27456 10.86336-20.33664 20.97152-29.12512 32.16-8.67584 11.01312-16.43904 23.63776-19.42272 39.11296-5.61024 30.20032-5.856 62.59456-5.88672 71.86688v2.1952c-0.032 10.7392-8.67584 19.4112-19.424 19.4112H437.66272c-5.45024 0-10.18752-2.14272-13.77152-5.68064-3.5392-3.58784-5.64608-8.28672-5.64608-13.73056v-2.26688c-0.04096-9.35296-0.32128-41.66784-5.93152-71.78624-1.90848-10.22336-6.08768-19.38048-11.13856-27.5008-8.95744-14.20544-20.41216-25.90464-32.23936-38.43584-17.86496-18.62528-36.76928-38.74688-51.4944-66.18368-14.68416-27.45344-25.58976-62.35136-25.63072-112.2368 0.04096-50.03904 16.55552-95.968 44.57216-132.99456 28.01536-36.9856 67.41376-64.91904 112.89984-78.528l5.61024-1.71264c10.9824-2.82112 22.24128-5.07136 33.84448-6.28608h0.07424l2.15296-0.2368c6.80064-0.6592 13.40416-1.07648 19.94368-1.11744l1.14944 0.1216 1.14944-0.08064c6.49088 0 13.12768 0.44032 19.89376 1.07648h-0.08064l2.23488 0.2368h0.03072c11.57888 1.21472 22.848 3.424 33.78816 6.29376l5.69088 1.70496c45.48224 13.60768 84.88064 41.55008 112.896 78.53568 27.9744 37.02528 44.53632 82.95552 44.53632 132.98688 0 38.00448-6.36032 67.3344-15.8336 91.27296v-0.01024zM539.95136 185.84832h0.08064-0.08064z m-55.95136 0h0.07296-0.07296z m101.79072 664.5248h-147.5456c-15.2384 0-27.65312 12.33664-27.65312 27.6992 0 15.19744 12.41856 27.61728 27.65312 27.61728h147.5456c15.2384 0 27.65696-12.41984 27.65696-27.61728 0.00128-15.37024-12.42496-27.6992-27.65696-27.6992z m0 69.79712h-147.5456c-15.2384 0-27.65312 12.3776-27.65312 27.61728 0 15.31904 12.41856 27.69792 27.65312 27.69792h147.5456c15.2384 0 27.65696-12.36864 27.65696-27.69792 0.00128-15.23968-12.42496-27.61728-27.65696-27.61728z m-60.84352 70.35648H448.96c0 0.83328-0.16256 1.632-0.16256 2.51264 0 15.28064 23.47776 27.65056 45.184 27.65056h36.05376c21.73824 0 45.17248-12.36992 45.17248-27.65056 0-0.88064-0.11392-1.67168-0.11392-2.51264h-50.14656z" p-id="13195"></path></svg>